<?xml version="1.0" standalone="no"?>
<!DOCTYPE svg PUBLIC "-//W3C//DTD SVG 20010904//EN"
 "http://www.w3.org/TR/2001/REC-SVG-20010904/DTD/svg10.dtd">
<svg version="1.0" xmlns="http://www.w3.org/2000/svg"
 width="580.000000pt" height="386.000000pt" viewBox="0 0 580.000000 386.000000"
 preserveAspectRatio="xMidYMid meet">

<g transform="translate(0.000000,386.000000) scale(0.100000,-0.100000)"
fill="#000000" stroke="none">
<path d="M0 1930 l0 -1930 2900 0 2900 0 0 1930 0 1930 -2900 0 -2900 0 0
-1930z m3413 1123 c11 -6 9 -41 -10 -130 -10 -47 -22 -83 -29 -83 -10 0 -168
-599 -160 -608 6 -5 461 -4 459 2 -1 4 -13 21 -27 39 -58 76 -61 133 -10 175
65 54 99 56 316 22 106 -16 221 -30 256 -30 94 0 191 26 266 71 36 21 70 39
75 39 20 0 11 -53 -15 -97 -14 -24 -24 -48 -22 -54 2 -5 33 9 70 31 77 46 98
50 98 18 0 -25 -111 -232 -138 -260 -12 -11 -68 -25 -177 -42 -88 -14 -164
-26 -168 -26 -4 0 -7 -15 -7 -34 0 -33 -1 -34 -92 -67 l-93 -34 40 -5 c24 -4
62 -22 93 -44 l52 -38 0 -63 0 -64 75 -36 c213 -102 325 -337 269 -564 -65
-266 -265 -405 -535 -371 -264 33 -455 259 -436 519 3 42 7 82 9 90 2 11 -7
14 -41 12 -33 -2 -55 -12 -92 -41 -26 -21 -69 -48 -96 -61 -47 -23 -55 -24
-293 -23 -227 1 -655 18 -742 30 -35 5 -38 3 -38 -21 0 -22 -4 -25 -33 -25
l-33 0 -10 -87 c-13 -113 -47 -186 -120 -264 -71 -74 -152 -115 -257 -129
-140 -20 -255 13 -351 101 -120 110 -167 320 -107 479 12 30 21 56 21 58 0 1
-28 2 -62 2 -62 0 -64 -1 -91 -40 -22 -30 -35 -40 -56 -40 -55 0 -56 8 -25
276 l28 247 69 71 c89 92 112 106 168 106 37 0 50 -5 72 -28 43 -45 50 -79 33
-159 -18 -87 -49 -149 -115 -230 -39 -49 -47 -63 -33 -64 144 -8 162 -3 162
48 0 31 9 45 73 108 262 258 697 430 1212 480 88 9 198 15 245 14 63 -2 86 2
92 12 9 16 148 583 148 604 0 7 -5 15 -11 17 -14 5 34 188 53 199 12 7 51 3
71 -8z"/>
<path d="M1357 1994 c-4 -4 -7 -77 -7 -163 0 -176 2 -178 63 -56 51 101 64
153 46 190 -12 25 -21 31 -54 33 -23 2 -44 0 -48 -4z"/>
<path d="M1275 1887 c-4 -10 -3 -28 2 -39 13 -29 21 -11 13 27 -6 25 -8 27
-15 12z"/>
<path d="M1201 1634 c-6 -64 -10 -119 -7 -121 7 -7 36 133 36 174 0 21 -4 44
-9 51 -5 8 -13 -33 -20 -104z"/>
</g>
</svg>
